<?xml version="1.0" encoding="UTF-8"?>
<svg width="1000px" height="1000px" viewBox="0 0 1000 1000" version="1.1" xmlns="http://www.w3.org/2000/svg" xmlns:xlink="http://www.w3.org/1999/xlink">
    <!-- Generator: Sketch 54.1 (76490) - https://sketchapp.com -->
    <title>编组 33</title>
    <desc>Created with Sketch.</desc>
    <defs>
        <linearGradient x1="-0.0116387337%" y1="49.998368%" x2="100%" y2="49.998368%" id="linearGradient-1">
            <stop stop-color="#0A2475" offset="0%"></stop>
            <stop stop-color="#306EF3" offset="100%"></stop>
        </linearGradient>
        <linearGradient x1="-0.0116387337%" y1="49.998368%" x2="100%" y2="49.998368%" id="linearGradient-2">
            <stop stop-color="#3158D3" offset="0%"></stop>
            <stop stop-color="#306EF3" offset="100%"></stop>
        </linearGradient>
        <linearGradient x1="-0.00589166516%" y1="50.0059943%" x2="99.9393168%" y2="50.0059943%" id="linearGradient-3">
            <stop stop-color="#FFFFFF" offset="0%"></stop>
            <stop stop-color="#F5E9CA" offset="100%"></stop>
        </linearGradient>
        <linearGradient x1="94.8836784%" y1="29.7629522%" x2="-61.4782076%" y2="104.84211%" id="linearGradient-4">
            <stop stop-color="#F9AA8F" offset="0%"></stop>
            <stop stop-color="#F78E6B" offset="100%"></stop>
        </linearGradient>
        <linearGradient x1="63.5953256%" y1="90.1145724%" x2="21.8537206%" y2="-7.79793077%" id="linearGradient-5">
            <stop stop-color="#154EAA" offset="0%"></stop>
            <stop stop-color="#0D439B" offset="100%"></stop>
        </linearGradient>
        <linearGradient x1="91.2794248%" y1="179.836994%" x2="-39.5012982%" y2="-231.307869%" id="linearGradient-6">
            <stop stop-color="#FFFFFF" offset="0%"></stop>
            <stop stop-color="#CDDFEC" offset="84%"></stop>
        </linearGradient>
    </defs>
    <g id="上传" stroke="none" stroke-width="1" fill="none" fill-rule="evenodd">
        <g id="画板" transform="translate(-9456.000000, -2575.000000)">
            <g id="编组-33" transform="translate(9456.000000, 2575.000000)">
                <rect id="矩形复制-21" x="0" y="0" width="1000" height="1000"></rect>
                <g id="编组-251" transform="translate(0.000000, 157.000000)">
                    <g id="编组-215复制" fill-rule="nonzero">
                        <g id="编组-214" fill="#F2F2F2">
                            <polygon id="路径" points="198.464062 28.8014585 202.833718 389.346767 391.648481 481.332399 387.278825 120.788157"></polygon>
                            <polygon id="路径" points="141.086735 2.27373675e-13 -4.26325641e-14 289.681173 191.434849 382.94502 187.065194 22.3997118"></polygon>
                            <polygon id="路径" points="989.615948 406.952638 608.557694 221.310518 612.927349 581.85476 848.528147 696.633811"></polygon>
                            <polygon id="路径" points="404.347791 120.788157 408.717446 481.332399 597.533276 573.319098 593.163621 212.774856"></polygon>
                        </g>
                        <path d="M103.52238,688.18773 C110.676773,714.638318 135.182196,731.019844 135.182196,731.019844 C135.182196,731.019844 148.088041,704.516474 140.933648,678.065875 C133.779255,651.615277 109.273842,635.233772 109.273842,635.233772 C109.273842,635.233772 96.3679869,661.737089 103.52238,688.18773 Z" id="路径" fill="#3F3D56"></path>
                        <path d="M114.035262,682.503214 C133.667016,701.616578 136.064896,730.99828 136.064896,730.99828 C136.064896,730.99828 106.633401,729.391079 87.0016374,710.277715 C67.3698734,691.16435 64.9720038,661.782648 64.9720038,661.782648 C64.9720038,661.782648 94.4034983,663.389807 114.035262,682.503214 Z" id="路径" fill="#1BAC7B"></path>
                        <path d="M855.463129,731.83007 L853.567033,730.850603 C878.19115,683.238679 865.023787,621.407194 849.642547,577.921409 C839.198237,548.692549 825.876709,520.573597 809.874173,493.978708 L811.677541,492.838813 C827.763154,519.568887 841.15413,547.83094 851.653239,577.208713 C867.176162,621.092559 880.436284,683.540852 855.463129,731.83007 Z" id="路径" fill="#2F2E41"></path>
                        <polygon id="矩形" fill="#2F2E41" transform="translate(867.853199, 531.292159) rotate(-79.644778) translate(-867.853199, -531.292159) " points="829.346802 530.226629 906.359647 530.224747 906.359595 532.35769 829.34675 532.359571"></polygon>
                        <polygon id="矩形" fill="#2F2E41" transform="translate(816.643330, 596.903682) rotate(-42.939680) translate(-816.643330, -596.903682) " points="815.579683 544.438719 817.714209 544.438571 817.706977 649.368645 815.572452 649.368792"></polygon>
                        <polygon id="矩形" fill="#2F2E41" transform="translate(892.920269, 667.856389) rotate(-54.137150) translate(-892.920269, -667.856389) " points="861.975432 666.791393 923.865246 666.787332 923.865106 668.921385 861.975292 668.925445"></polygon>
                        <ellipse id="椭圆形" fill="#1BAC7B" cx="880.118534" cy="462.466995" rx="10.6681034" ry="10.6695779"></ellipse>
                        <ellipse id="椭圆形" fill="#3F3D56" cx="763.836207" cy="544.622745" rx="10.6681034" ry="10.6695779"></ellipse>
                        <ellipse id="椭圆形" fill="#3F3D56" cx="810.775862" cy="555.292323" rx="10.6681034" ry="10.6695779"></ellipse>
                        <ellipse id="椭圆形" fill="#1BAC7B" cx="789.439655" cy="596.903677" rx="10.6681034" ry="10.6695779"></ellipse>
                        <ellipse id="椭圆形" fill="#3F3D56" cx="922.790948" cy="623.577621" rx="10.6681034" ry="10.6695779"></ellipse>
                        <ellipse id="椭圆形" fill="#3F3D56" cx="887.586207" cy="635.314157" rx="10.6681034" ry="10.6695779"></ellipse>
                        <ellipse id="椭圆形" fill="#3F3D56" cx="912.122845" cy="669.456806" rx="10.6681034" ry="10.6695779"></ellipse>
                        <ellipse id="椭圆形" fill="#3F3D56" cx="800.107759" cy="475.270489" rx="10.6681034" ry="10.6695779"></ellipse>
                        <rect id="矩形" fill="#2F2E41" x="0" y="730.2734" width="963.329741" height="2.13391557"></rect>
                        <polygon id="矩形" fill="#F2F2F2" transform="translate(93.879316, 528.471511) rotate(30.000000) translate(-93.879316, -528.471511) " points="41.6006746 476.189257 146.151701 476.195514 146.157958 580.753765 41.6069314 580.747508"></polygon>
                        <path d="M115.215517,618.095955 C102.253489,618.095955 91.7456897,607.586703 91.7456897,594.622884 C91.7456897,581.659064 102.253489,571.149812 115.215517,571.149812 C128.177545,571.149812 138.685345,581.659064 138.685345,594.622884 C138.670712,607.580636 128.171479,618.08132 115.215517,618.095955 Z M115.215517,573.283728 C103.431856,573.283728 93.8793103,582.837593 93.8793103,594.622884 C93.8793103,606.408174 103.431856,615.962039 115.215517,615.962039 C126.999179,615.962039 136.551724,606.408174 136.551724,594.622884 C136.538619,582.843027 126.993746,573.296835 115.215517,573.283728 L115.215517,573.283728 Z" id="形状" fill="#3F3D56"></path>
                    </g>
                    <g id="man-pulling-luggage复制" transform="translate(317.000000, 250.000000)">
                        <path d="M209.219281,459.766954 L330.131377,459.766954 L330.131377,468.541987 C330.131377,472.22825 327.144071,475.216556 323.459042,475.216556 L209.219281,475.216556 L209.219281,459.766954 Z" id="路径" fill="#0D439B" fill-rule="nonzero"></path>
                        <path d="M341.397605,467.006623 L252.51485,467.006623 C245.294505,467.000048 239.277763,461.472051 238.658563,454.275894 L225.65497,303.181126 C225.267015,298.645159 226.797797,294.154245 229.875139,290.800258 C232.952481,287.446272 237.294495,285.536439 241.845509,285.535099 L326.049102,285.535099 C334.483504,285.537108 341.515112,291.992239 342.239641,300.398278 L355.264551,451.919536 C355.589465,455.800263 354.275011,459.639775 351.640101,462.506528 C349.00519,465.373282 345.290615,467.0053 341.397605,467.006623 L341.397605,467.006623 Z" id="路径" fill="url(#linearGradient-1)" fill-rule="nonzero"></path>
                        <path d="M310.327545,467.006623 L221.44479,467.006623 C214.224445,467.000048 208.207703,461.472051 207.588503,454.275894 L194.58491,303.181126 C194.196955,298.645159 195.727737,294.154245 198.805079,290.800258 C201.882421,287.446272 206.224435,285.536439 210.775449,285.535099 L294.979042,285.535099 C303.413444,285.537108 310.445052,291.992239 311.169581,300.398278 L324.194491,451.919536 C324.519406,455.800263 323.204951,459.639775 320.570041,462.506528 C317.93513,465.373282 314.220555,467.0053 310.327545,467.006623 Z" id="路径" fill="url(#linearGradient-2)" fill-rule="nonzero"></path>
                        <path d="M227.104551,306.006623 L221.77521,243.696424 C221.452855,239.93922 222.720126,236.218949 225.268817,233.440391 C227.817508,230.661833 231.414079,229.079593 235.183832,229.078477 L257.673653,229.078477 C264.660725,229.080546 270.484806,234.429566 271.082275,241.393377 L276.62479,306.006623" id="路径" stroke="#FFC941" stroke-width="8" stroke-linecap="round"></path>
                        <path d="M14.8262275,129.546358 C14.8262275,129.546358 4.57257485,112.79596 11.2768862,103.071987 C17.9811976,93.3480132 23.8861078,90.7890728 23.1293413,95.2672185 C22.3725749,99.7453642 32.3171257,117.903179 27.3288623,126.294371" id="路径" fill="#F9AA8F" fill-rule="nonzero"></path>
                        <path d="M76.1669461,107.454172 C71.5410778,138.086821 64.0373653,174.796954 33.1165269,131.977351 C31.2938922,129.450397 29.6098204,127.317947 28.0749701,125.516026 L14.2186826,129.066556 C15.5723353,143.172715 24.5256287,167.162781 37.2307784,179.957483 C61.2234731,204.13947 85.0989222,185.736424 89.7141317,179.957483 L89.7141317,66.4151656 C89.7141317,66.4151656 80.7928144,76.7682119 76.1669461,107.454172 Z" id="路径" fill="#6DD4ED" fill-rule="nonzero"></path>
                        <path d="M27.3288623,126.294371 L26.8172455,125.878543 L14.2506587,129.077219 C15.3165269,140.432517 21.36,158.195828 30.2386826,171.363709 C18.1197605,151.00947 27.3288623,126.294371 27.3288623,126.294371 Z" id="路径" fill="#36C2DB" fill-rule="nonzero"></path>
                        <path d="M89.7461078,180.000132 L89.7461078,66.4151656 C89.7461078,66.4151656 80.7928144,76.8215232 76.1669461,107.454172 C74.2057485,120.472781 71.7116168,134.57894 67.1390419,143.226026 L67.1390419,143.226026 C59.8591617,168.346291 66.8619162,203.659669 40.8440719,183.273444 C63.5790419,202.348212 85.3547305,185.523179 89.7461078,180.000132 Z" id="路径" fill="#36C2DB" fill-rule="nonzero"></path>
                        <polyline id="路径" fill="#F9AA8F" fill-rule="nonzero" points="191.440599 436.651192 203.293054 459.766954 215.13485 459.766954 211.50024 424.37894"></polyline>
                        <path d="M43.3275449,459.543046 L60.2108982,436.960397 L43.9777246,426.490066 L31.1873054,454.265232 C31.1873054,454.265232 27.2329341,472.529669 43.3275449,459.543046 Z" id="_Path_" fill="#F9AA8F" fill-rule="nonzero"></path>
                        <path d="M31.3258683,454.211921 C31.3258683,454.211921 -5.76634731,464.255762 1.67341317,467.518411 L29.5671856,474.864702 C32.1303629,475.555849 34.8647098,475.165872 37.13267,473.7857 C39.4006302,472.405529 41.0039762,470.155795 41.5688623,467.56106 L43.3168862,459.489735 L31.3258683,454.211921 Z" id="路径" fill="#FFD087" fill-rule="nonzero"></path>
                        <path d="M88.0513772,84.6262914 C88.0513772,84.6262914 75.2609581,137.60702 89.4583234,220.463377 C90.7267066,227.926954 102.387305,244.794636 136.356527,221.369669 L88.0513772,84.6262914 Z" id="_Path_2" fill="#6DD4ED" fill-rule="nonzero"></path>
                        <path d="M110.67976,215.21755 C110.67976,215.21755 95.4698204,176.24702 91.2809581,158.974172 C82.082515,121.101854 80.8887425,84.2424503 91.7925749,61.6278146 C91.7925749,61.6278146 98.4542515,38.7039735 126.550539,56.6698675 L159.016886,264.423841 L110.67976,215.21755 Z" id="_Path_3" fill="#FFFDF9" fill-rule="nonzero"></path>
                        <path d="M126.550539,56.6698675 C98.4542515,38.7039735 91.7925749,61.6278146 91.7925749,61.6278146 C84.7791617,76.1711258 82.7753293,96.6213245 84.6938922,119.438543 C86.3353293,125.707947 89.4583234,131.59351 95.1500599,135.090728 C111.862874,145.347815 118.85497,189.116358 111.138084,215.633377 L128.874132,233.695232 C137.314502,234.54713 145.817884,234.572127 154.263114,233.769868 L126.550539,56.6698675 Z" id="路径" fill="url(#linearGradient-3)" fill-rule="nonzero"></path>
                        <path d="M101.70515,25.0456291 L99.6693413,11.0247682 C99.6693413,11.0247682 86.2500599,0.810331126 63.6216766,20.3968874 C58.4735329,24.8643709 54.2420359,44.0137748 56.3950898,53.2046358 C56.5500297,54.5389765 57.6163136,55.5833958 58.9531737,55.7102649 C61.8044592,55.9427038 64.3268713,57.649137 65.6041916,60.2097351 C66.094491,61.2759603 66.5528144,62.2568874 66.9045509,63.0672185 C68.6205988,67.0549007 70.3366467,70.5307947 72.6708982,70.4135099 C75.3035928,70.2855629 79.0661078,68.8888079 83.2336527,66.9376159 C84.3753044,66.4104972 85.7067619,66.5015677 86.7660629,67.1792294 C87.825364,67.8568911 88.4665163,69.0277492 88.4670659,70.2855629 C88.3924551,78.6660927 87.5717365,87.5050993 88.0194012,92.4950331 C89.5222754,109.671921 118.471257,52.3303311 118.471257,52.3303311 L117.88503,51.9038411 C109.091175,45.5005546 103.256377,35.8149299 101.70515,25.0456291 L101.70515,25.0456291 Z" id="路径" fill="#F9AA8F" fill-rule="nonzero"></path>
                        <path d="M97.1752096,88.9658278 C106.160479,76.7788742 118.492575,52.3409934 118.492575,52.3409934 L117.906347,51.9145033 C109.100452,45.5172013 103.253617,35.830738 101.694491,25.0562914 L99.6586826,11.0354305 C99.6586826,11.0354305 86.2394012,0.820993377 63.611018,20.4075497 C61.5858683,22.1668212 59.6992814,26.2184768 58.2816766,31.0698013 C59.7204545,31.4239776 61.2236174,31.4239776 62.6623952,31.0698013 C64.3997605,30.419404 59.8698204,41.0176821 59.9657485,48.8224503 C60.051018,56.1260927 58.1324551,55.5609934 57.8873054,55.4543709 L58.1857485,55.5929801 C58.4265185,55.6802306 58.6771023,55.7375261 58.9318563,55.7635762 C60.9622434,55.9650206 62.853117,56.8880759 64.2611976,58.3651656 L64.2611976,58.3651656 C64.2611976,58.3651656 61.0635928,33.3088742 72.3511377,33.980596 C83.6386826,34.6523179 87.8168862,48.7478146 84.3847904,58.3651656 C81.1871856,67.3534437 78.085509,69.0274172 77.7017964,69.272649 C77.9895808,69.144702 79.9294611,68.2703974 82.5301796,67.2788079 L83.1697006,66.9802649 C83.4874038,66.8303936 83.824726,66.7262913 84.1716168,66.6710596 C89.6288623,64.7411921 96.8234731,62.8646358 98.7313772,65.6048344 C101.928982,70.1362914 93.2421557,78.3249007 93.8177246,81.2143709 C94.3932934,84.1038411 101.278802,79.7429801 99.882515,83.4321192 C99.1925009,85.3733041 98.2842408,87.2297797 97.1752096,88.9658278 L97.1752096,88.9658278 Z" id="路径" fill="url(#linearGradient-4)" fill-rule="nonzero"></path>
                        <path d="M110.67976,215.21755 C110.67976,215.21755 118.599162,402.233444 191.365988,446.268543 C193.565354,447.585032 196.082853,448.274534 198.645868,448.262384 L201.118683,448.262384 C204.290457,448.260821 207.3172,446.933113 209.467038,444.600305 C211.616875,442.267497 212.694088,439.141965 212.438204,435.97947 L194.531617,215.270861 L110.67976,215.21755 Z" id="_Path_4" fill="#0D439B" fill-rule="nonzero"></path>
                        <path d="M207.599162,376.377483 L207.599162,376.377483 L194.808743,218.394901 L193.529701,215.196225 L143.540479,215.196225 L139.458204,216.774238 L115.113772,262.877815 C119.547784,297.455497 128.202635,344.817219 144.680958,383.93702 L144.680958,383.93702 C144.680958,383.93702 168.908144,374.245033 183.329341,350.521523 C197.750539,326.798013 207.599162,376.377483 207.599162,376.377483 Z" id="路径" fill="url(#linearGradient-5)" fill-rule="nonzero"></path>
                        <path d="M56.6722156,447.91053 C61.0422754,447.270795 188.552096,348.751589 194.520958,215.21755 L110.67976,215.21755 C110.67976,215.21755 58.3989222,395.569536 37.3053892,440.660199 C37.3053892,440.660199 41.5688623,450.192252 56.6722156,447.91053 Z" id="_Path_5" fill="#0D439B" fill-rule="nonzero"></path>
                        <path d="M56.6722156,447.91053 C61.0422754,447.270795 188.552096,348.751589 194.520958,215.21755 L110.67976,215.21755 C110.67976,215.21755 108.707904,222.009404 105.350419,233.290066 L105.350419,233.290066 C105.350419,233.290066 158.473293,238.37596 146.343713,278.839205 C134.214132,319.30245 70.8695808,456.802848 37.3053892,440.660199 C37.3053892,440.660199 41.5688623,450.192252 56.6722156,447.91053 Z" id="路径" fill="#154EAA" fill-rule="nonzero"></path>
                        <path d="M129.236527,58.1092715 C127.786946,57.0430464 126.102874,56.2113907 124.578683,55.1771523 C117.469341,50.3258278 94.2653892,39.9088079 110.722395,125.078874 C126.337365,206.111987 119.089461,227.95894 146.961916,237.213775 C159.166108,241.286755 194.552934,217.573907 194.552934,217.573907 C194.552934,217.573907 188.552096,103.70106 129.236527,58.1092715 Z" id="路径" fill="#6DD4ED" fill-rule="nonzero"></path>
                        <path d="M142.24012,157.129603 C167.820958,175.25543 170.251138,216.027881 155.616766,228.566689 C140.982395,241.105497 130.355689,225.272053 130.355689,225.272053 L130.355689,225.272053 C133.937006,230.98702 139.021198,234.63351 146.940599,237.256424 C159.14479,241.329404 194.531617,217.616556 194.531617,217.616556 C194.531617,217.616556 190.342754,138.022848 154.337725,85.2980132 L118.503234,73.0577483 C118.503234,73.0577483 116.712575,138.961126 142.24012,157.129603 Z" id="路径" fill="#36C2DB" fill-rule="nonzero"></path>
                        <path d="M92.7305389,2.13245033 C104.191711,3.24956114 114.047904,8.96695364 114.047904,20.5141722 C114.04824,23.1435703 113.52276,25.7464702 112.502395,28.1696689 L114.047904,48.6695057 C105.614443,41.6644525 101.311888,37.1448822 101.14024,35.1107947 C101.043936,32.788105 99.5066944,30.7732608 97.2924551,30.0675497 C91.9631138,27.9350993 89.9166467,34.2471523 89.2664671,37.0619868 C89.0933733,37.8488288 88.3875742,38.4029325 87.5823952,38.384106 C87.0825956,38.3856911 86.6079131,38.1651186 86.2867342,37.7820463 C85.9655552,37.3989739 85.8310657,36.8929827 85.9196407,36.4009272 C86.7403593,31.8694702 87.8701796,21.3884768 80.1106587,24.1286755 C73.3017887,26.3592061 66.2605005,27.8044234 59.1237126,28.4362252 C59.1237126,28.4362252 -8.59157776,-7.74333147 92.7305389,2.13245033 Z" id="路径" fill="#0D439B" fill-rule="nonzero"></path>
                        <path d="M215.13485,459.766954 L203.293054,459.766954 L177.786826,477.370331 C176.861143,478.004642 176.456728,479.168349 176.789454,480.240279 C177.122179,481.312209 178.11437,482.042121 179.236407,482.040397 L210.327784,482.040397 C212.271814,482.037909 214.120913,481.19934 215.403952,479.738348 C216.686991,478.277357 217.280076,476.335021 217.032096,474.406225 L215.13485,459.766954 Z" id="路径" fill="#FFD087" fill-rule="nonzero"></path>
                        <path d="M235.269102,216.795563 C223.87497,176.513576 187.976527,117.636623 167.88491,92.6336424 C154.817365,76.3630464 136.90012,63.2271523 129.236527,58.1092715 C123.512814,54.2815232 121.626228,60.6255629 119.643713,67.2254967 C113.930659,86.4175497 131.048503,114.139404 131.048503,114.139404 L220.293653,216.848874 L235.269102,216.795563 Z" id="路径" fill="#6DD4ED" fill-rule="nonzero"></path>
                        <path d="M220.31497,216.795563 C220.31497,216.795563 227.27509,236.925894 238.253533,239.527483 C249.231976,242.129073 254.433413,236.957881 252.696048,235.785033 C250.165116,234.38737 247.560608,233.127391 244.893892,232.010596 C244.893892,232.010596 247.313413,216.784901 235.301078,216.784901" id="路径" fill="#F9AA8F" fill-rule="nonzero"></path>
                        <path d="M18.5780838,84.6262914 L5.32934132,84.6262914 C4.42902748,84.6277555 3.58508636,85.0649767 3.06439507,85.7996937 C2.54370378,86.5344107 2.41064867,87.4757717 2.70730539,88.3260927 L10.2962874,109.895828 C10.6891682,111.007435 11.7396808,111.750729 12.9183234,111.75106 L25.9325749,111.75106 C26.8294957,111.75067 27.6712076,111.317717 28.1933319,110.58819 C28.7154561,109.858663 28.8539338,108.922067 28.5652695,108.072583 L21.1894611,86.5028477 C20.8050982,85.3865072 19.7583603,84.634313 18.5780838,84.6262914 Z" id="路径" fill="#071C2A" fill-rule="nonzero"></path>
                        <path d="M18.1943713,88.9658278 L9.89125749,88.9658278 C9.32672708,88.9687685 8.79836932,89.2442589 8.47264365,89.7055054 C8.14691798,90.166752 8.06392822,90.7569655 8.24982036,91.2901987 L13.0142515,104.831258 C13.2615593,105.526223 13.9182547,105.991183 14.6556886,105.993444 L22.8308982,105.993444 C23.3946725,105.992757 23.9235065,105.72011 24.2511939,105.261194 C24.5788813,104.802278 24.6651899,104.213437 24.482994,103.679735 L19.8571257,90.1386755 C19.6108366,89.4321019 18.9423974,88.9606087 18.1943713,88.9658278 Z" id="路径" fill="url(#linearGradient-6)" fill-rule="nonzero"></path>
                        <ellipse id="椭圆形" fill="#07224F" fill-rule="nonzero" cx="307.012695" cy="474.534172" rx="7.50371257" ry="7.50622517"></ellipse>
                        <ellipse id="椭圆形" fill="#FFFFFF" fill-rule="nonzero" cx="307.012695" cy="474.534172" rx="2.73928144" ry="2.74019868"></ellipse>
                        <ellipse id="椭圆形" fill="#07224F" fill-rule="nonzero" cx="231.996886" cy="474.534172" rx="7.50371257" ry="7.50622517"></ellipse>
                        <ellipse id="椭圆形" fill="#FFFFFF" fill-rule="nonzero" cx="231.996886" cy="474.534172" rx="2.73928144" ry="2.74019868"></ellipse>
                    </g>
                </g>
            </g>
        </g>
    </g>
</svg>