<?xml version="1.0" encoding="UTF-8"?>
<svg width="1200px" height="1200px" viewBox="0 0 1200 1200" version="1.1" xmlns="http://www.w3.org/2000/svg" xmlns:xlink="http://www.w3.org/1999/xlink">
    <!-- Generator: Sketch 54.1 (76490) - https://sketchapp.com -->
    <title>编组 13</title>
    <desc>Created with Sketch.</desc>
    <defs>
        <linearGradient x1="54.7423927%" y1="10.5634842%" x2="51.2701698%" y2="65.6765816%" id="linearGradient-1">
            <stop stop-color="#000000" stop-opacity="0" offset="0%"></stop>
            <stop stop-color="#000000" stop-opacity="0.8" offset="91%"></stop>
            <stop stop-color="#000000" offset="100%"></stop>
        </linearGradient>
        <linearGradient x1="49.0147651%" y1="47.763207%" x2="50.2255034%" y2="50.5117619%" id="linearGradient-2">
            <stop stop-color="#000000" offset="1%"></stop>
            <stop stop-color="#000000" stop-opacity="0.77" offset="10%"></stop>
            <stop stop-color="#000000" stop-opacity="0" offset="99%"></stop>
        </linearGradient>
        <linearGradient x1="52.7059494%" y1="85.7727091%" x2="37.6963472%" y2="86.126863%" id="linearGradient-3">
            <stop stop-color="#000000" stop-opacity="0" offset="0%"></stop>
            <stop stop-color="#000000" stop-opacity="0.8" offset="91%"></stop>
            <stop stop-color="#000000" offset="100%"></stop>
        </linearGradient>
        <linearGradient x1="50.373795%" y1="46.4336352%" x2="48.9678488%" y2="59.8483846%" id="linearGradient-4">
            <stop stop-color="#000000" stop-opacity="0" offset="0%"></stop>
            <stop stop-color="#000000" stop-opacity="0.8" offset="91%"></stop>
            <stop stop-color="#000000" offset="100%"></stop>
        </linearGradient>
        <linearGradient x1="47.246813%" y1="7.99290138%" x2="63.9430824%" y2="261.367875%" id="linearGradient-5">
            <stop stop-color="#183866" offset="0%"></stop>
            <stop stop-color="#1A7FC1" offset="100%"></stop>
        </linearGradient>
        <linearGradient x1="47.246813%" y1="1517.76316%" x2="63.9430824%" y2="1771.22695%" id="linearGradient-6">
            <stop stop-color="#183866" offset="0%"></stop>
            <stop stop-color="#1A7FC1" offset="100%"></stop>
        </linearGradient>
        <linearGradient x1="47.246813%" y1="1517.76316%" x2="63.8542725%" y2="1771.22695%" id="linearGradient-7">
            <stop stop-color="#183866" offset="0%"></stop>
            <stop stop-color="#1A7FC1" offset="100%"></stop>
        </linearGradient>
        <linearGradient x1="47.1580817%" y1="1517.76199%" x2="63.8543517%" y2="1771.22558%" id="linearGradient-8">
            <stop stop-color="#183866" offset="0%"></stop>
            <stop stop-color="#1A7FC1" offset="100%"></stop>
        </linearGradient>
        <linearGradient x1="47.2468917%" y1="1517.76199%" x2="63.8543517%" y2="1771.22558%" id="linearGradient-9">
            <stop stop-color="#183866" offset="0%"></stop>
            <stop stop-color="#1A7FC1" offset="100%"></stop>
        </linearGradient>
        <linearGradient x1="45.182549%" y1="104.340396%" x2="49.8318557%" y2="12.9186603%" id="linearGradient-10">
            <stop stop-color="#000000" stop-opacity="0.77" offset="10%"></stop>
            <stop stop-color="#000000" stop-opacity="0" offset="99%"></stop>
        </linearGradient>
        <linearGradient x1="75.3421313%" y1="-560.980499%" x2="39.1748734%" y2="-555.330782%" id="linearGradient-11">
            <stop stop-color="#000000" stop-opacity="0.77" offset="10%"></stop>
            <stop stop-color="#000000" stop-opacity="0" offset="99%"></stop>
        </linearGradient>
        <linearGradient x1="52.2749541%" y1="-3.13093771%" x2="49.7726876%" y2="54.5174014%" id="linearGradient-12">
            <stop stop-color="#000000" stop-opacity="0.77" offset="36%"></stop>
            <stop stop-color="#000000" stop-opacity="0" offset="99%"></stop>
        </linearGradient>
        <linearGradient x1="49.1546985%" y1="-1342.87334%" x2="51.5729028%" y2="-1450.32587%" id="linearGradient-13">
            <stop stop-color="#000000" offset="1%"></stop>
            <stop stop-color="#000000" stop-opacity="0.77" offset="10%"></stop>
            <stop stop-color="#000000" stop-opacity="0" offset="99%"></stop>
        </linearGradient>
        <linearGradient x1="74.5367351%" y1="-1358.43015%" x2="22.1260978%" y2="-1488.46699%" id="linearGradient-14">
            <stop stop-color="#000000" offset="1%"></stop>
            <stop stop-color="#000000" stop-opacity="0.77" offset="10%"></stop>
            <stop stop-color="#000000" stop-opacity="0" offset="99%"></stop>
        </linearGradient>
        <linearGradient x1="77.577548%" y1="-560.08173%" x2="35.1846381%" y2="-629.012175%" id="linearGradient-15">
            <stop stop-color="#000000" stop-opacity="0.77" offset="10%"></stop>
            <stop stop-color="#000000" stop-opacity="0" offset="99%"></stop>
        </linearGradient>
        <linearGradient x1="43.4651791%" y1="41.5367005%" x2="69.1673115%" y2="69.2016025%" id="linearGradient-16">
            <stop stop-color="#000000" stop-opacity="0" offset="0%"></stop>
            <stop stop-color="#000000" offset="98%"></stop>
        </linearGradient>
        <linearGradient x1="57.4920018%" y1="51.7914331%" x2="-53.5745482%" y2="17.6572031%" id="linearGradient-17">
            <stop stop-color="#000000" stop-opacity="0" offset="0%"></stop>
            <stop stop-color="#000000" offset="98%"></stop>
        </linearGradient>
        <linearGradient x1="49.0249691%" y1="48.1027348%" x2="35.6376861%" y2="112.658655%" id="linearGradient-18">
            <stop stop-color="#000000" stop-opacity="0" offset="0%"></stop>
            <stop stop-color="#000000" offset="98%"></stop>
        </linearGradient>
        <linearGradient x1="0%" y1="49.8888889%" x2="100%" y2="49.8888889%" id="linearGradient-19">
            <stop stop-color="#ECC4D7" offset="0%"></stop>
            <stop stop-color="#EFD4D1" offset="42%"></stop>
            <stop stop-color="#F2EAC9" offset="100%"></stop>
        </linearGradient>
        <linearGradient x1="-0.132625995%" y1="50%" x2="99.867374%" y2="50%" id="linearGradient-20">
            <stop stop-color="#ECC4D7" offset="0%"></stop>
            <stop stop-color="#EFD4D1" offset="42%"></stop>
            <stop stop-color="#F2EAC9" offset="100%"></stop>
        </linearGradient>
    </defs>
    <g id="页面2" stroke="none" stroke-width="1" fill="none" fill-rule="evenodd">
        <g id="画板" transform="translate(-7165.000000, -384.000000)">
            <g id="编组-13" transform="translate(7165.000000, 384.000000)">
                <rect id="矩形复制-5" x="0" y="0" width="1200" height="1200"></rect>
                <g id="编组-4复制" transform="translate(97.000000, 272.000000)">
                    <rect id="Rectangle" fill="#005AC4" fill-rule="nonzero" x="229" y="28" width="503" height="582"></rect>
                    <rect id="Rectangle" fill="url(#linearGradient-1)" fill-rule="nonzero" x="229" y="28" width="503" height="582"></rect>
                    <path d="M662.444564,56.1375458 L229,95 C230.950685,95 229,41.007326 229,28 L686,28 L686,32.5648352 C686.000002,45.5788931 675.455856,56.1307712 662.444564,56.1375458 L662.444564,56.1375458 Z" id="Path" fill="url(#linearGradient-2)" fill-rule="nonzero"></path>
                    <rect id="Rectangle" fill="#005AC4" fill-rule="nonzero" x="229" y="95" width="503" height="582"></rect>
                    <rect id="Rectangle" fill="url(#linearGradient-3)" fill-rule="nonzero" x="229" y="95" width="72" height="582"></rect>
                    <rect id="Rectangle" fill="#FFFFFF" fill-rule="nonzero" x="257" y="204" width="87" height="87"></rect>
                    <rect id="Rectangle" fill="#FFFFFF" fill-rule="nonzero" x="349" y="204" width="87" height="87"></rect>
                    <rect id="Rectangle" fill="#FFFFFF" fill-rule="nonzero" x="440" y="204" width="87" height="87"></rect>
                    <rect id="Rectangle" fill="#FFFFFF" fill-rule="nonzero" x="532" y="204" width="87" height="87"></rect>
                    <rect id="Rectangle" fill="#FFFFFF" fill-rule="nonzero" x="257" y="294" width="87" height="87"></rect>
                    <rect id="Rectangle" fill="#FFFFFF" fill-rule="nonzero" x="349" y="294" width="87" height="87"></rect>
                    <rect id="Rectangle" fill="#FFFFFF" fill-rule="nonzero" x="440" y="294" width="87" height="87"></rect>
                    <rect id="Rectangle" fill="#FFFFFF" fill-rule="nonzero" x="532" y="294" width="87" height="87"></rect>
                    <rect id="Rectangle" fill="#FFFFFF" fill-rule="nonzero" x="257" y="385" width="87" height="87"></rect>
                    <rect id="Rectangle" fill="#FFFFFF" fill-rule="nonzero" x="349" y="385" width="87" height="87"></rect>
                    <rect id="Rectangle" fill="#FFFFFF" fill-rule="nonzero" x="440" y="385" width="87" height="87"></rect>
                    <rect id="Rectangle" fill="#FFFFFF" fill-rule="nonzero" x="532" y="385" width="87" height="87"></rect>
                    <rect id="Rectangle" fill="#FFFFFF" fill-rule="nonzero" x="257" y="476" width="87" height="87"></rect>
                    <rect id="Rectangle" fill="#FFFFFF" fill-rule="nonzero" x="349" y="476" width="87" height="87"></rect>
                    <rect id="Rectangle" fill="#FFFFFF" fill-rule="nonzero" x="440" y="476" width="87" height="87"></rect>
                    <rect id="Rectangle" fill="#FFFFFF" fill-rule="nonzero" x="532" y="476" width="87" height="87"></rect>
                    <rect id="Rectangle" fill="#FFFFFF" fill-rule="nonzero" x="257" y="566" width="87" height="87"></rect>
                    <rect id="Rectangle" fill="#FFFFFF" fill-rule="nonzero" x="349" y="566" width="87" height="87"></rect>
                    <rect id="Rectangle" fill="#FFFFFF" fill-rule="nonzero" x="440" y="566" width="87" height="87"></rect>
                    <rect id="Rectangle" fill="#FFFFFF" fill-rule="nonzero" x="622" y="204" width="87" height="87"></rect>
                    <rect id="Rectangle" fill="#FFFFFF" fill-rule="nonzero" x="622" y="113" width="87" height="87"></rect>
                    <rect id="Rectangle" fill="#FFFFFF" fill-rule="nonzero" x="532" y="113" width="87" height="87"></rect>
                    <rect id="Rectangle" fill="#FFFFFF" fill-rule="nonzero" x="622" y="294" width="87" height="87"></rect>
                    <rect id="Rectangle" fill="#FFFFFF" fill-rule="nonzero" x="622" y="385" width="87" height="87"></rect>
                    <rect id="Rectangle" fill="#FFFFFF" fill-rule="nonzero" x="622" y="476" width="87" height="87"></rect>
                    <path d="M268,4.57915395 L268,51.4208461 C268,53.948539 271.141638,56 275,56 L275,56 C278.870307,56 282,53.948539 282,51.4208461 L282,4.57915395 C282,2.05146097 278.870307,0 275,0 L275,0 C271.141638,0 268,2.05146097 268,4.57915395 Z" id="Path" fill="#005AC4" fill-rule="nonzero"></path>
                    <path d="M337,4.57915395 L337,51.4208461 C337,53.948539 340.129693,56 344,56 L344,56 C347.870307,56 351,53.948539 351,51.4208461 L351,4.57915395 C351,2.05146097 347.870307,0 344,0 L344,0 C340.129693,0 337,2.05146097 337,4.57915395 Z" id="Path" fill="#005AC4" fill-rule="nonzero"></path>
                    <path d="M406,4.57915395 L406,51.4208461 C406,53.948539 409.129693,56 413,56 L413,56 C416.870307,56 420,53.948539 420,51.4208461 L420,4.57915395 C420,2.05146097 416.870307,0 413,0 L413,0 C409.129693,0 406,2.05146097 406,4.57915395 Z" id="Path" fill="#005AC4" fill-rule="nonzero"></path>
                    <path d="M474,4.57915395 L474,51.4208461 C474,53.948539 477.129693,56 481,56 L481,56 C484.858362,56 488,53.948539 488,51.4208461 L488,4.57915395 C488,2.05146097 484.858362,0 481,0 L481,0 C477.129693,0 474,2.05146097 474,4.57915395 Z" id="Path" fill="#005AC4" fill-rule="nonzero"></path>
                    <path d="M543,4.57915395 L543,51.4208461 C543,53.948539 546.13896,56 550.005968,56 L550.005968,56 C553.86104,56 557,53.948539 557,51.4208461 L557,4.57915395 C557,2.05146097 553.86104,0 550.005968,0 L550.005968,0 C546.13896,0 543,2.05146097 543,4.57915395 Z" id="Path" fill="#005AC4" fill-rule="nonzero"></path>
                    <path d="M612,4.57915395 L612,51.4208461 C612,53.948539 615.13896,56 618.994032,56 L618.994032,56 C622.86104,56 626,53.948539 626,51.4208461 L626,4.57915395 C626,2.05146097 622.86104,0 618.994032,0 L618.994032,0 C615.13896,0 612,2.05146097 612,4.57915395 Z" id="Path" fill="#005AC4" fill-rule="nonzero"></path>
                    <path d="M679,4.57915395 L679,51.4208461 C679,53.948539 682.141638,56 686,56 L686,56 C689.870307,56 693,53.948539 693,51.4208461 L693,4.57915395 C693,2.05146097 689.870307,0 686,0 L686,0 C682.141638,0 679,2.05146097 679,4.57915395 Z" id="Path" fill="#005AC4" fill-rule="nonzero"></path>
                    <rect id="Rectangle" fill="#005AC4" fill-rule="nonzero" x="732" y="28" width="11" height="649"></rect>
                    <rect id="Rectangle" fill="url(#linearGradient-4)" fill-rule="nonzero" x="732" y="28" width="11" height="649"></rect>
                    <path d="M551.999989,125.987572 C552.006849,129.853559 548.878414,132.993124 545.01243,132.999989 C541.146446,133.006853 538.00688,129.878419 538.000011,126.012431 C537.993142,122.146444 541.121571,119.006873 544.987556,119 L544.987556,119 C548.850725,118.999976 551.98629,122.124424 551.999989,125.987572 Z" id="Path" fill="url(#linearGradient-5)" fill-rule="nonzero"></path>
                    <path d="M551.999989,216.987572 C552.006849,220.853559 548.878414,223.993124 545.01243,223.999989 C541.146446,224.006853 538.00688,220.878419 538.000011,217.012431 C537.993142,213.146444 541.121571,210.006873 544.987556,210 L544.987556,210 C548.850725,209.999976 551.98629,213.124424 551.999989,216.987572 Z" id="Path" fill="url(#linearGradient-6)" fill-rule="nonzero"></path>
                    <path d="M568.999989,216.987572 C569.006849,220.853559 565.878414,223.993124 562.01243,223.999989 C558.146446,224.006853 555.00688,220.878419 555.000011,217.012431 C554.993142,213.146444 558.121571,210.006873 561.987556,210 L561.987556,210 C565.850725,209.999976 568.98629,213.124424 568.999989,216.987572 L568.999989,216.987572 Z" id="Path" fill="url(#linearGradient-7)" fill-rule="nonzero"></path>
                    <path d="M585.999989,216.987572 C586.006849,220.853559 582.878414,223.993124 579.01243,223.999989 C575.146446,224.006853 572.00688,220.878419 572.000011,217.012431 C571.993142,213.146444 575.121571,210.006873 578.987556,210 L578.987556,210 C582.850725,209.999976 585.98629,213.124424 585.999989,216.987572 Z" id="Path" fill="url(#linearGradient-7)" fill-rule="nonzero"></path>
                    <path d="M552,399 C552,402.865993 548.865993,406 545,406 C541.134007,406 538,402.865993 538,399 C538,395.134007 541.134007,392 545,392 L545,392 C548.859126,392 551.987567,395.12844 551.987567,398.987567 L552,399 Z" id="Path" fill="url(#linearGradient-8)" fill-rule="nonzero"></path>
                    <circle id="Oval" fill="#FF2235" fill-rule="nonzero" cx="271" cy="399" r="7"></circle>
                    <path d="M569,399 C569,402.865993 565.865993,406 562,406 C558.134007,406 555,402.865993 555,399 C555,395.134007 558.134007,392 562,392 L562,392 C565.859126,392 568.987567,395.12844 568.987567,398.987567 L569,399 Z" id="Path" fill="url(#linearGradient-9)" fill-rule="nonzero"></path>
                    <path d="M586,399 C586,402.865993 582.865993,406 579,406 C575.134007,406 572,402.865993 572,399 C572,395.134007 575.134007,392 579,392 L579,392 C582.859126,392 585.987567,395.12844 585.987567,398.987567 L586,399 Z" id="Path" fill="url(#linearGradient-9)" fill-rule="nonzero"></path>
                    <path d="M462.538783,517.996558 L474.896343,537.235973 C476.046853,539.01972 478.419718,539.535947 480.204699,538.390829 C480.508922,538.186214 480.785069,537.942519 481.026084,537.665973 L515.05841,498.351715 C516.04336,497.219249 516.277405,495.61458 515.657095,494.24698 C515.036786,492.879381 513.676476,492.000968 512.177431,492.000006 L511.895463,492.000006 C510.759469,491.998059 509.681388,492.50224 508.953187,493.376005 L482.325589,525.318839 C480.978427,526.937866 478.579526,527.162901 476.955936,525.822553 C476.66167,525.574987 476.405539,525.285188 476.195848,524.962553 L468.950493,513.905418 C468.126567,512.655064 466.65294,511.998185 465.174572,512.222277 L465.174572,512.222277 C463.934308,512.43328 462.877734,513.24381 462.35071,514.388547 C461.823687,515.533283 461.894056,516.864867 462.538783,517.947415 L462.538783,517.996558 Z" id="Path" fill="#005AC4" fill-rule="nonzero"></path>
                    <path d="M313.098635,615.928488 L328.821486,631.329221 C329.952756,632.439449 330.29768,634.119972 329.694519,635.582777 C329.091358,637.045582 327.659722,638.000592 326.070916,637.999995 L325.401859,637.999995 C324.36288,637.99959 323.365845,637.59206 322.626509,636.865593 L307.324917,621.625156 C305.792957,620.109396 303.318568,620.109396 301.786608,621.625156 L286.485015,636.865593 C285.751768,637.59361 284.757809,638.001705 283.722056,637.999995 L283.040608,637.999995 C281.451803,638.000592 280.020166,637.045582 279.417006,635.582777 C278.813845,634.119972 279.158769,632.439449 280.290039,631.329221 L296.02528,615.928488 C297.544072,614.41656 297.544072,611.965696 296.02528,610.453768 L296.02528,610.453768 L280.141359,594.646131 C279.026254,593.531961 278.693433,591.859914 279.297522,590.406817 C279.901612,588.953721 281.324185,588.004444 282.904319,588.000018 L282.904319,588.000018 C283.928222,587.996925 284.912072,588.395664 285.642499,589.109758 L301.749438,604.917396 C303.272752,606.407331 305.714874,606.407331 307.238187,604.917396 L323.345127,589.109758 C324.075553,588.395664 325.059403,587.996925 326.083306,588.000018 L326.083306,588.000018 C327.665694,587.999473 329.092841,588.946926 329.700104,590.401135 C330.307367,591.855343 329.975341,593.53037 328.858656,594.646131 L312.974736,610.453768 C311.476276,611.986044 311.509558,614.437069 313.049075,615.928488 L313.049075,615.928488 L313.098635,615.928488 Z" id="Path" fill="#005AC4" fill-rule="nonzero"></path>
                    <g id="编组" transform="translate(923.000000, 504.000000)" fill-rule="nonzero">
                        <polygon id="Path" fill="#005AC4" points="37.5228252 62.9282285 41.311757 62.9282285 43.2062228 149.03666 41.311757 134.853227 37.5228252 134.853227"></polygon>
                        <path d="M41.311757,94.3185988 L41.311757,94.4169241 C41.311757,97.1085808 40.3584128,99.8002374 39.3439569,103.020393 C32.6705481,104.962319 28.221609,106.523234 21.6704238,99.7142027 C15.1192386,92.9051718 8.3602733,79.7418646 10.4991864,73.0926123 C17.1725952,71.1506865 30.1771866,78.2178216 36.7405942,85.0268525 C40.1384104,88.505112 41.2873122,91.4180007 41.311757,94.3185988 Z" id="Path" fill="#005AC4"></path>
                        <path d="M60.8553112,99.7633654 C54.8419099,105.626015 50.6129732,104.839412 45.1006887,103.069556 L45.1006887,134.853227 L41.311757,134.853227 L41.311757,62.9282285 L45.1006887,62.9282285 L45.1006887,85.8011647 C45.4551371,85.4078633 45.8340303,85.0145619 46.2495906,84.5720978 C53.0207782,77.9842988 66.1109262,71.1752679 72.7232232,73.3384257 C74.6665785,80.0860033 67.6264989,93.1632758 60.8553112,99.7633654 Z" id="Path" fill="#005AC4"></path>
                        <path d="M60.8553112,99.7633654 C54.8419099,105.626015 50.6129732,104.839412 45.1006887,103.069556 L45.1006887,134.853227 L41.311757,134.853227 L41.311757,62.9282285 L45.1006887,62.9282285 L45.1006887,85.8011647 C45.4551371,85.4078633 45.8340303,85.0145619 46.2495906,84.5720978 C53.0207782,77.9842988 66.1109262,71.1752679 72.7232232,73.3384257 C74.6665785,80.0860033 67.6264989,93.1632758 60.8553112,99.7633654 Z" id="Path" fill="url(#linearGradient-10)"></path>
                        <path d="M41.311757,45.5615123 L24.3960102,45.5615123 C24.3960102,57.6432406 31.9616512,67.4389043 41.2995346,67.4389043 L45.2840241,56.7091497 L41.311757,45.5615123 Z" id="Path" fill="#005AC4"></path>
                        <polygon id="Path" fill="#005AC4" points="41.6050936 49.7526307 41.311757 49.9615721 41.311757 48.7325051"></polygon>
                        <path d="M9.2891727,20.9187197 C7.15025963,27.567972 13.9092249,40.7435698 20.4726325,47.5403101 C27.03604,54.3370505 31.4727568,52.8007168 38.1339432,50.8465003 C40.2728563,44.197248 42.093988,39.6619909 35.5305805,32.8529599 C28.9671729,26.043929 15.9625815,18.9767939 9.2891727,20.9187197 Z" id="Path" fill="#005AC4"></path>
                        <path d="M59.6452976,47.6263448 C59.083069,48.179425 58.5330628,48.6710518 57.9952789,49.1135159 C56.6874863,59.5114224 49.7085185,67.4389043 41.311757,67.4389043 L41.311757,49.9615721 L41.6050936,49.7526307 L41.311757,48.7202144 L41.311757,49.9492814 C40.9273118,50.2246603 40.5181216,50.463317 40.0895209,50.6621402 C34.0761196,47.1592994 29.2116202,36.011662 29.6027357,26.5355557 C29.9938512,17.0594495 34.7361271,3.04808607 40.9939756,-5.96855898e-13 C47.0073769,3.50284085 50.9307546,17.821471 50.5763061,27.3098679 L50.5763061,28.0104361 C57.5063845,23.2293656 66.4653747,19.5667461 71.5620989,21.2259865 C73.4565648,27.9612734 66.4042629,41.0262552 59.6452976,47.6263448 Z" id="Path" fill="#005AC4"></path>
                        <path d="M59.6452976,47.6263448 C59.083069,48.179425 58.5330628,48.6710518 57.9952789,49.1135159 C56.6874863,59.5114224 49.7085185,67.4389043 41.311757,67.4389043 L41.311757,49.9615721 L41.6050936,49.7526307 L41.311757,48.7202144 L41.311757,49.9492814 C40.9273118,50.2246603 40.5181216,50.463317 40.0895209,50.6621402 C34.0761196,47.1592994 29.2116202,36.011662 29.6027357,26.5355557 C29.9938512,17.0594495 34.7361271,3.04808607 40.9939756,-5.96855898e-13 C47.0073769,3.50284085 50.9307546,17.821471 50.5763061,27.3098679 L50.5763061,28.0104361 C57.5063845,23.2293656 66.4653747,19.5667461 71.5620989,21.2259865 C73.4565648,27.9612734 66.4042629,41.0262552 59.6452976,47.6263448 Z" id="Path" fill="url(#linearGradient-11)"></path>
                        <polygon id="Path" fill="#005AC4" points="41.6050936 49.7526307 41.311757 49.9615721 41.311757 48.7325051"></polygon>
                        <polygon id="Path" fill="#005AC4" points="7.88360125 123.877659 13.8481131 172.35206 41.4339806 172.35206 52.7029968 144.771798 41.4339806 122.525686"></polygon>
                        <polygon id="Path" fill="#005AC4" points="74.9965822 123.877659 69.0320703 172.35206 41.4339806 172.35206 41.4339806 122.525686"></polygon>
                        <path d="M53.7296751,122.857534 L53.4241161,123.005022 L44.061788,127.675476 L41.5073147,128.978287 L4.24133785,128.978287 C1.89901038,128.978287 0.000178789343,127.068843 0.000178789343,124.713425 L0.000178789343,113.873054 C-0.00959296836,112.859277 0.381542875,111.883123 1.0875312,111.159359 C1.79351953,110.435595 2.75652222,110.023516 3.76466579,110.013784 L4.11911425,110.013784 L41.5073147,110.087528 L53.7296751,122.857534 Z" id="Path" fill="#005AC4"></path>
                        <path d="M53.7296751,122.857534 L53.4241161,123.005022 L44.061788,127.675476 L41.5073147,128.978287 L4.24133785,128.978287 C1.89901038,128.978287 0.000178789343,127.068843 0.000178789343,124.713425 L0.000178789343,113.873054 C-0.00959296836,112.859277 0.381542875,111.883123 1.0875312,111.159359 C1.79351953,110.435595 2.75652222,110.023516 3.76466579,110.013784 L4.11911425,110.013784 L41.5073147,110.087528 L53.7296751,122.857534 Z" id="Path" fill="url(#linearGradient-12)"></path>
                        <path d="M78.6388456,128.978287 L41.4339806,128.978287 L41.4339806,109.608192 L78.6388456,109.608192 C80.9811731,109.608192 82.8800047,111.517636 82.8800047,113.873054 L82.8800047,124.713425 C82.8800047,127.068843 80.9811731,128.978287 78.6388456,128.978287 Z" id="Path" fill="#005AC4"></path>
                        <polygon id="Path" fill="url(#linearGradient-13)" points="41.4462029 128.978287 41.4462029 172.35206 13.8481131 172.35206 8.50694163 128.978287"></polygon>
                        <polygon id="Path" fill="url(#linearGradient-14)" points="74.3732418 128.978287 69.0320703 172.35206 41.4462029 172.35206 41.4462029 128.978287"></polygon>
                        <path d="M82.8800047,114.364681 L82.8800047,125.205052 C82.8800047,127.56047 80.9811731,129.469914 78.6388456,129.469914 L41.5073147,129.469914 L41.5073147,110.099819 L78.6999574,110.099819 C81.0183846,110.133415 82.8802454,112.033054 82.8800047,114.364681 Z" id="Path" fill="url(#linearGradient-15)"></path>
                    </g>
                    <path d="M153.699307,677.036591 L83.2822558,690.428956 C81.66538,690.443441 80.1919374,691.351925 79.4634437,692.783532 C78.73495,694.215139 78.8733072,695.93031 79.8220325,697.228848 C80.7707579,698.527386 82.3710971,699.192001 83.9697305,698.95137 L84.1784282,698.95137 L879.512994,698.95137 C881.842811,699.046817 883.826489,697.286925 883.989317,694.980036 C884.152144,692.673148 882.435039,690.656341 880.114534,690.428956 L777.472107,677.620985 L776.882843,677.620985 L154.595479,677.012241 C154.296701,676.989956 153.996406,676.998115 153.699307,677.036591 Z" id="Path" fill="#1D2741" fill-rule="nonzero" opacity="0.18"></path>
                    <g id="编组-14" transform="translate(680.000000, 385.000000)">
                        <path d="M218.5,244.356882 C170.604421,266.011225 108.920088,264.476338 108.920088,264.476338 L42.1666667,264.476338 L42.1666667,251.803155 C69.3686857,244.253173 106.980066,239.586289 148.554931,239.586289 C171.954896,239.505028 195.330371,241.099349 218.5,244.356882 Z" id="Path" fill="#000000" fill-rule="nonzero" opacity="0.1"></path>
                        <path d="M299,280.311229 C299,303.344275 232.057222,322 149.5,322 C66.9427778,322 0,303.344275 0,280.311229 C0,268.825973 16.6526389,258.424624 43.6041667,250.899801 L43.6041667,263.635721 L110.048611,263.635721 C110.048611,263.635721 171.447431,265.178205 219.121319,243.416667 C266.608396,250.378733 299,264.281897 299,280.311229 Z" id="Path" fill="#000000" fill-rule="nonzero" opacity="0.1"></path>
                        <rect id="Rectangle" fill="#2F2E41" fill-rule="nonzero" x="105.416667" y="21.0833333" width="63.25" height="63.25"></rect>
                        <path d="M129.153845,66.6553489 C129.153845,66.6553489 134.461536,84.9478004 125.173072,86.2545513 C119.408947,87.139228 113.946694,89.3803348 109.25,92.7876256 L126.49999,115 L158.346134,115 L178.25,95.4007976 C178.25,95.4007976 151.711547,75.8015953 157.019237,64.0421357 C162.326928,52.2826761 129.153845,66.6553489 129.153845,66.6553489 Z" id="Path" fill="#FFB9B9" fill-rule="nonzero"></path>
                        <path d="M129.153845,66.6553489 C129.153845,66.6553489 134.461536,84.9478004 125.173072,86.2545513 C119.408947,87.139228 113.946694,89.3803348 109.25,92.7876256 L126.49999,115 L158.346134,115 L178.25,95.4007976 C178.25,95.4007976 151.711547,75.8015953 157.019237,64.0421357 C162.326928,52.2826761 129.153845,66.6553489 129.153845,66.6553489 Z" id="Path" fill="#000000" fill-rule="nonzero" opacity="0.1"></path>
                        <polygon id="Path" fill="#FFB9B9" fill-rule="nonzero" points="136.083333 295.051122 166.604174 305.375824 187.833333 306.666667 186.506249 288.596911 142.718754 276"></polygon>
                        <path d="M174.416814,291.489672 C174.416814,291.489672 174.416814,309.833701 177.083633,309.833701 C179.750452,309.833701 215.752572,305.902808 226.419974,309.833701 C237.087377,313.764594 253.088249,299.351334 245.087666,291.489672 C237.087082,283.62801 224.037136,271.835207 215.894552,274.45583 C207.751968,277.076453 174.416667,283.627886 174.416667,283.627886 L174.416814,291.489672 Z" id="Path" fill="#2F2E41" fill-rule="nonzero"></path>
                        <path d="M79.7043962,274.083333 C79.7043962,274.083333 64.0817711,305.126215 74.4968476,307.713134 C84.9119242,310.300052 96.6289239,306.419664 97.9308059,305.126215 C99.2326879,303.832766 117.459139,298.658949 120.062882,301.245867 C122.666626,303.832786 122.666667,290.898233 122.666667,290.898233 L79.7043962,274.083333 Z" id="Path" fill="#2F2E41" fill-rule="nonzero"></path>
                        <path d="M91.9985068,231.916667 C91.9985068,231.916667 66.877583,265.790294 85.3877231,274.910131 C103.897863,284.029967 192.482118,284.029946 199.092881,274.910131 C205.703644,265.790315 208.347962,237.12806 199.092881,234.522322 C189.837801,231.916584 91.9985068,231.916667 91.9985068,231.916667 Z" id="Path" fill="#2F2E41" fill-rule="nonzero"></path>
                        <path d="M91.9985068,231.916667 C91.9985068,231.916667 66.877583,265.790294 85.3877231,274.910131 C103.897863,284.029967 192.482118,284.029946 199.092881,274.910131 C205.703644,265.790315 208.347962,237.12806 199.092881,234.522322 C189.837801,231.916584 91.9985068,231.916667 91.9985068,231.916667 Z" id="Path" fill="#000000" fill-rule="nonzero" opacity="0.2"></path>
                        <path d="M140.10602,88.1666667 C156.96043,88.1666667 167.562312,73.4490501 170.285217,45.9006908 C173.008122,18.3523316 156.622018,15.3333333 139.767609,15.3333333 C122.913199,15.3333333 109.25,29.0188055 109.25,45.9006908 C109.25,62.7825762 123.251611,88.1666667 140.10602,88.1666667 Z" id="Oval" fill="#FFB9B9" fill-rule="nonzero"></path>
                        <path d="M92,93.4566692 L118.136357,88.1666667 C118.136357,88.1666667 124.670446,109.326656 145.579548,105.35917 C166.488651,101.391683 171.715906,88.1666667 171.715906,88.1666667 C171.715906,88.1666667 187.397732,94.7791646 188.704546,94.7791646 C190.01136,94.7791646 207,101.391662 207,105.35917 C207,109.326677 187.397691,149.001664 187.397691,149.001664 L190.011318,220.416667 L93.3067313,217.771655 L99.8408205,147.679169 L92,93.4566692 Z" id="Path" fill="#005AC4" fill-rule="nonzero"></path>
                        <path d="M77.07017,128.416667 C77.07017,128.416667 69.538011,197.549743 74.5594569,202.767335 C79.5809028,207.984928 99.6666667,222.333333 99.6666667,222.333333 L99.6666667,206.680556 L89.6237748,187.114558 L99.6666667,141.460638 L77.07017,128.416667 Z" id="Path" fill="#FFB9B9" fill-rule="nonzero"></path>
                        <path d="M212.75,124.583333 C212.75,124.583333 208.168705,196.34861 208.168705,198.982188 C208.168705,201.615767 196.388216,210.833333 192.46138,210.833333 C188.534544,210.833333 185.916667,204.249366 185.916667,204.249366 L195.079278,193.71501 L188.534564,139.726462 L212.75,124.583333 Z" id="Path" fill="#FFB9B9" fill-rule="nonzero"></path>
                        <path d="M200.596852,225.532604 C200.596852,225.532604 259.321991,192.459245 260.62699,225.532604 C261.931988,258.605963 230.611921,271.835277 230.611921,271.835277 C230.611921,271.835277 149.701724,296.430436 146.439217,287.440201 C143.176711,278.449966 136.651697,263.89768 141.871712,262.574751 C147.091727,261.251822 153.61674,258.605942 156.226737,261.251822 C158.836734,263.897701 191.461821,241.407777 191.461821,241.407777 L200.596852,225.532604 Z" id="Path" fill="#2F2E41" fill-rule="nonzero"></path>
                        <path d="M228.083333,220.416667 C228.083333,220.416667 216.377975,226.038893 212.476202,230.255569 C208.57443,234.472244 191.666667,241.5 191.666667,241.5" id="Path" stroke="#000000" stroke-width="2" opacity="0.2"></path>
                        <path d="M100.184505,94.6468194 L92.3362414,92 C92.3362414,92 63.5592481,122.438528 72.7155313,130.378944 C81.8718145,138.319361 87.1040383,140.966264 89.7201192,143.613083 C92.3362001,146.259903 105.416667,147.583333 105.416667,147.583333 L100.184505,94.6468194 Z" id="Path" fill="#005AC4" fill-rule="nonzero"></path>
                        <path d="M196.43683,101.583333 L208.128431,104.211916 C208.128431,104.211916 217.221888,123.926234 219.820032,126.554755 C222.418177,129.183275 215.922825,127.869036 212.025639,133.12618 C208.128452,138.383325 204.231224,147.583333 196.43683,147.583333 C188.642436,147.583333 178.25,134.440482 178.25,134.440482 L196.43683,101.583333 Z" id="Path" fill="#005AC4" fill-rule="nonzero"></path>
                        <path d="M94.5325985,237.597237 C94.5325985,237.597237 44.2629558,201.734257 27.065441,228.299418 C9.86792622,254.864578 101.147024,290.727579 114.375875,296.040594 C127.604726,301.353609 139.510696,306.666667 139.510696,306.666667 C139.510696,306.666667 151.416667,277.444977 151.416667,272.131941 C151.416667,266.818905 142.156479,266.818926 139.510696,266.818926 C136.864914,266.818926 124.958964,264.162397 122.313203,260.177615 C119.667441,256.192832 94.5325985,237.597237 94.5325985,237.597237 Z" id="Path" fill="#2F2E41" fill-rule="nonzero"></path>
                        <path d="M67.0833333,228.083333 C67.0833333,228.083333 80.0672195,238.906865 91.7527027,241.612738 C103.438186,244.31861 107.333333,251.083333 107.333333,251.083333" id="Path" stroke="#000000" stroke-width="2" opacity="0.2"></path>
                        <path d="M84.3345832,177.81726 L85.3930205,234.533847 C85.4657817,238.433283 88.6359409,241.543369 92.4932636,241.499542 L196.88756,240.313631 C200.578267,240.271714 203.607027,237.3484 203.8196,233.622929 L206.988328,178.092359 C207.099653,176.141547 206.410831,174.230583 205.084125,172.809621 C203.757419,171.38866 201.910122,170.583328 199.977391,170.583333 L91.3559289,170.583333 C89.4704705,170.583329 87.6642077,171.349864 86.3436136,172.710441 C85.0230196,174.071018 84.2990354,175.911337 84.3345832,177.81726 L84.3345832,177.81726 Z" id="Path" fill="#575A89" fill-rule="nonzero"></path>
                        <path d="M97.3158314,104.933548 C100.129096,98.6930926 103.909666,92.8367096 105.711207,86.2291229 C107.870517,78.3093775 95.2119417,63.1946151 94.9550455,54.9867943 C94.5448017,47.7277378 95.1600706,40.446868 96.7824972,33.3613907 C98.4301369,26.2420749 102.128804,19.7689183 107.416115,14.7511541 C121.154034,2.42290706 135.208426,-3.24307216 151.9834,1.88911029 C158.596569,3.91237333 165.641353,7.76530391 167.281142,14.5159721 C167.528691,15.5351287 167.639717,16.5853213 167.916135,17.5969113 C169.289536,22.6230559 174.404527,25.8033393 176.250052,30.6742832 C178.637059,36.9745244 174.956452,43.8258672 174.475332,50.5501973 C173.913647,58.4007822 177.752697,65.8174246 181.536721,72.7080561 C183.786212,76.8043686 186.125119,81.1679481 185.901847,85.841534 C185.715258,88.3976964 184.942137,90.875657 183.643113,93.0810863 C178.74219,101.208889 170.026867,106.230974 160.573221,106.374795 C157.550169,106.618149 154.527446,105.900774 151.931867,104.323968 C147.837988,101.490215 146.638953,95.7840227 147.4918,90.8615046 C148.344647,85.9389865 150.830334,81.4867893 152.77791,76.8897644 C153.375536,75.4791137 153.914929,74.0444948 154.412095,72.5954909 C166.880852,65.5986945 172.526036,50.5926187 167.783051,37.0527061 C163.040066,23.5127936 149.287093,15.373372 135.208315,17.7740011 C121.129537,20.1746302 110.815861,32.4177528 110.779759,46.7725667 C110.743657,61.1273806 120.995619,73.42277 135.062142,75.8949293 C136.530754,83.3321925 135.863322,91.0360303 133.137851,98.1061084 C130.65945,103.858346 127.547348,109.313142 123.85985,114.368296 C122.351701,116.959817 120.34181,119.220941 117.949087,121.017894 C116.371808,121.956549 114.678935,122.683317 112.913731,123.179624 C105.509214,125.573489 120.617619,139.015625 112.913731,137.93872 C105.209843,136.861816 97.5801927,132.190932 94.9550455,124.830749 C92.6549528,118.381544 94.5025666,111.173942 97.3158314,104.933548 Z" id="Path" fill="#2F2E41" fill-rule="nonzero"></path>
                        <path d="M115.741983,59.4166667 C133.207988,59.4166667 168.666667,37.8478515 168.666667,27.7916667 C168.666667,17.7354818 154.507672,9.58333333 137.041667,9.58333333 C119.575661,9.58333333 105.416667,17.7354818 105.416667,27.7916667 C105.416667,37.8478515 98.2759777,59.4166667 115.741983,59.4166667 Z" id="Oval" fill="#2F2E41" fill-rule="nonzero"></path>
                        <circle id="Oval" fill="#FFFFFF" cx="145.666667" cy="207" r="9.58333333"></circle>
                    </g>
                    <g id="Group-80-Copy" transform="translate(0.000000, 425.000000)" fill-rule="nonzero">
                        <path d="M17.6914237,270.407949 C17.6914237,270.407949 28.3353425,234.617573 42.816171,234.617573 C57.2969995,234.617573 78.5083539,188.079908 95.9210403,188.079908 C113.333727,188.079908 128.910815,214.547489 151.53711,214.547489 C174.163404,214.547489 193.717621,241.345756 208.97603,241.345756 C224.234438,241.345756 231.653313,215.755764 253.336314,215.755764 C275.019315,215.755764 299.519449,270.446105 299.519449,270.446105 L17.6914237,270.407949 Z" id="Path" fill="#E6E6E6"></path>
                        <path d="M97.6724556,232.566018 C87.5119633,242.114553 55.9763354,202.742673 22.0656924,196.815996 C-11.8449506,190.889319 21.8624825,164.11796 24.9106302,146.350592 C27.9587779,128.583223 -4.30078508,111.955601 1.03347337,96.9616138 C6.36773181,81.9676266 24.2501982,81.1824685 35.0711225,100.368187 C45.8920468,119.553905 38.1319708,82.6388102 48.0257502,80.8532087 C57.9195295,79.0676072 70.2010246,136.384149 79.4470725,126.531681 C88.6931205,116.679213 93.5574562,85.4248551 106.626389,128.684534 C119.695323,171.944213 119.517514,212.025268 97.6724556,232.566018 Z" id="Path" fill="#4B8AD3"></path>
                        <path d="M46.4416139,181.361602 L47.8554499,178.283878 C60.3486187,187.771409 78.4714253,188.102073 84.3452711,187.936741 C80.1037632,174.621131 74.8725701,161.890543 68.9216059,155.175507 C62.8164051,148.218832 55.8243436,142.724712 48.356719,136.899927 C44.8478352,134.152867 41.3132452,131.354936 37.8429206,128.378954 C34.9381303,129.231052 25.9281392,131.494833 23.2161447,127.615882 L25.2983395,125.224922 C26.2237594,126.560299 30.4395613,126.49671 34.6168039,125.542869 C26.9923309,118.842343 20.6148276,110.870371 15.7742263,101.989373 L18.074923,99.967232 C26.3265839,115.419444 38.2670713,124.792515 49.8091141,133.860356 L51.428599,135.132143 C53.0480838,133.389795 56.9554123,127.9847 54.2177118,117.721379 L56.7883226,116.564053 C59.705966,127.526857 56.1071107,134.152867 53.806414,137.06526 C59.8783272,141.69834 65.5177354,146.861311 70.6567682,152.492036 C73.8062687,156.337784 76.4334714,160.574913 78.4714253,165.095446 C82.198811,162.170336 94.0621802,151.665375 94.2164168,135.920651 L97.0055296,135.920651 C96.864146,150.825995 87.7641836,161.203778 82.417313,166.023851 C81.4147747,166.926819 80.5536201,167.626302 79.8467021,168.122299 C90.9003288,193.023889 97.8409781,231.24109 98.2137167,233.250513 L95.5017223,234.051739 C92.7952589,219.680776 89.3634837,205.452873 85.2192788,191.421438 C80.7078567,191.739384 60.5799737,192.095485 46.4416139,181.361602 Z" id="Path" fill="#F2F2F2"></path>
                        <path d="M128.86166,228.19654 C113.317043,231.560229 99.6930953,155.845265 70.4989215,143.528794 C26.8869233,125.124431 73.4823612,96.206942 84.5838299,78.4676424 C95.6852986,60.7283427 66.7344096,18.5991047 79.2059558,5.56641085 C91.6775019,-7.46628299 112.113424,4.68392226 115.929153,34.1002087 C119.744883,63.5164951 127.069035,16.3481193 138.977185,21.5663127 C150.885335,26.7845061 139.758257,100.095008 154.34254,95.7465132 C168.926822,91.3980187 188.03108,59.769116 183.920847,117.885466 C179.810615,176.001816 162.332524,220.944786 128.86166,228.19654 Z" id="Path" fill="#FFC7C7"></path>
                        <path d="M92.9350769,132.845971 L95.852088,130.415029 C105.643993,150.00331 125.664712,163.360702 132.26975,167.390949 C133.336323,149.478739 133.040767,131.425789 129.40414,119.680497 C125.626161,107.500193 120.216198,96.3306504 114.497828,84.5085913 C111.786422,78.9174227 109.075015,73.236693 106.504961,67.4280189 C102.881185,66.3021086 91.8813549,62.3102445 90.5449269,56.0665596 L93.8988471,54.8894714 C94.3614568,57.0645256 99.0389547,59.9176849 104.179062,61.9264114 C98.6724448,49.2183443 95.0535439,35.7796998 93.4362374,22.0333592 L96.8672593,21.4320207 C99.3473612,44.6539225 108.573854,63.7176324 117.42769,82.1416206 C117.838898,82.9988478 118.250107,83.8816639 118.712717,84.7005079 C121.28277,83.9200473 127.95206,80.6702605 129.36559,67.2105135 L132.809462,67.811852 C131.29313,82.1800039 124.418236,87.0035064 120.588856,88.6283998 C125.310046,98.1106933 129.338343,107.919608 132.642408,117.978837 C134.464578,124.413241 135.55512,131.031065 135.893526,137.707857 C141.30349,137.106519 159.02401,133.869526 166.065958,116.341149 L169.150022,118.388258 C162.519284,135.021026 147.882827,140.1388 139.851409,141.635749 C138.347928,141.930021 137.088601,142.096349 136.137681,142.18591 C137.641163,178.010331 128.813028,225.784756 128.337568,228.30526 L124.970798,227.256116 C125.047899,226.808311 129.969552,200.221473 131.987044,172.112096 C126.589931,169.041432 104.024859,154.993141 92.9350769,132.845971 Z" id="Path" fill="#E6E9F8"></path>
                        <path d="M75.2073473,270.394891 C75.2073473,270.394891 99.7060324,197.657373 144.943198,197.657373 C190.180365,197.657373 189.122409,246.311231 216.514539,246.311231 C243.906669,246.311231 236.373515,234.083748 259.928962,234.083748 C283.48441,234.083748 299.519449,270.446105 299.519449,270.446105 L75.2073473,270.394891 Z" id="Path" fill="#F2F2F2"></path>
                    </g>
                    <g id="编组-3" transform="translate(114.000000, 224.000000)" fill-rule="nonzero">
                        <path d="M107.740721,105.434783 C107.740721,105.434783 62.8700979,162.420775 67.4425253,187.995351 C72.0149526,213.569927 83.0339139,239.624506 83.0339139,239.624506 L113.137363,113.863641 L107.740721,105.434783 Z" id="Path" fill="#005AC4"></path>
                        <path d="M107.740721,105.434783 C107.740721,105.434783 62.8700979,162.420775 67.4425253,187.995351 C72.0149526,213.569927 83.0339139,239.624506 83.0339139,239.624506 L113.137363,113.863641 L107.740721,105.434783 Z" id="Path" fill="url(#linearGradient-16)"></path>
                        <path d="M88.8725482,255.252383 C97.2638956,239.266707 138.124422,273.708486 143.285343,290.818832 C148.446264,307.929177 114.880875,368.026862 97.4579152,386.57909 C80.0349557,405.131319 47.7403943,421.732199 27.1064105,427.490119 C27.1064105,427.490119 19.8306758,417.877565 21.2858227,413.926805 C22.7409697,409.976046 65.5028881,379.090911 69.373579,360.432945 C73.2442699,341.774978 80.4812008,271.247672 88.8725482,255.252383 Z" id="Path" fill="#302F47"></path>
                        <path d="M282.442107,107.959916 C282.442107,107.959916 277.283855,92.5659109 278.146795,90.8720722 C279.009736,89.1782334 284.022549,85.2724406 286.388364,87.554141 C288.754179,89.8358414 293.553681,103.984377 293.553681,103.984377 L343.92421,86.3086714 C343.92421,86.3086714 349.547869,85.4119332 348.956415,91.7289553 C348.364962,98.0459774 294.164527,120.185446 294.164527,120.185446 C294.164527,120.185446 289.752863,124.828557 282.442107,107.959916 Z" id="Path" fill="#005AC4"></path>
                        <path d="M163.271745,22.9197562 C163.271745,22.9197562 179.149675,50.3872567 176.005433,67.0327562 C172.861192,83.6782556 163.879044,79.9415109 160.695621,88.5505826 C158.699745,94.1956169 157.416623,100.063718 156.875515,106.021078 C156.875515,106.021078 147.658283,113.436332 131.153464,93.2579104 C132.622963,85.0436436 131.73373,76.5855168 128.587135,68.8477465 C123.327142,56.4145775 126.167735,11.5348169 163.271745,22.9197562 Z" id="Path" fill="#FFB9B9"></path>
                        <path d="M115.624372,9.32472613 C91.5715127,31.9395329 81.7061579,18.2254862 69.6894193,24.4808487 C57.6726807,30.7362113 53.0501127,32.9709515 57.4110259,56.5312252 C61.7719391,80.091499 40.2774824,75.0012574 35.1219139,89.2596639 C20.3820273,130.010247 44.8128322,137.125125 72.0830761,135.998205 C99.35332,134.871284 96.7852267,85.8216021 116.884191,83.9211179 C136.983156,82.0206337 141.111487,84.981187 149.242167,59.5395293 C154.029481,44.5744102 150.618278,38.0420927 157.120884,32.9614013 C165.426001,26.4768346 168.323585,12.428532 159.650213,6.44057425 C150.104659,-0.149044278 130.926332,-5.05783257 115.624372,9.32472613 Z" id="Path" fill="#3F3D56"></path>
                        <path d="M115.342037,101.490566 C115.342037,101.490566 113.359048,92.3537857 119.873214,89.2148285 C126.387381,86.0758713 145.058131,84.5595136 147.654218,89.2148285 C150.250305,93.8701434 153.095463,104.41704 155.873563,104.668156 C158.651663,104.919273 170.061034,123.212149 170.061034,123.212149 C170.061034,123.212149 172.446369,174.03428 172.580484,193.766248 C172.800816,225.117186 154.168384,274.055943 128.447007,270.067053 C102.725629,266.078163 83.9590822,258.873049 84.3805871,245.428654 C84.802092,231.984259 106.528753,130.697355 104.976848,119.290867 C103.290829,106.986155 114.901373,101.065599 115.342037,101.490566 Z" id="Path" fill="#005AC4"></path>
                        <path d="M115.342037,101.490566 C115.342037,101.490566 113.359048,92.3537857 119.873214,89.2148285 C126.387381,86.0758713 145.058131,84.5595136 147.654218,89.2148285 C150.250305,93.8701434 153.095463,104.41704 155.873563,104.668156 C158.651663,104.919273 170.061034,123.212149 170.061034,123.212149 C170.061034,123.212149 172.446369,174.03428 172.580484,193.766248 C172.800816,225.117186 154.168384,274.055943 128.447007,270.067053 C102.725629,266.078163 83.9590822,258.873049 84.3805871,245.428654 C84.802092,231.984259 106.528753,130.697355 104.976848,119.290867 C103.290829,106.986155 114.901373,101.065599 115.342037,101.490566 Z" id="Path" fill="url(#linearGradient-17)"></path>
                        <path d="M137.560926,116.921571 C137.560926,116.921571 147.513304,97.3916019 161.623736,109.262759 C175.734167,121.133917 193.049765,165.028479 205.10042,165.277391 C217.151075,165.526302 266.701213,125.815365 271.022893,129.405433 C275.344574,132.995501 282.852171,141.95631 278.809619,149.605548 C274.767067,157.254786 219.364854,205.505297 195.504172,200.986599 C171.64349,196.4679 120.784335,164.061555 137.560926,116.921571 Z" id="Path" fill="#005AC4"></path>
                        <path d="M137.560926,116.921571 C137.560926,116.921571 147.513304,97.3916019 161.623736,109.262759 C175.734167,121.133917 193.049765,165.028479 205.10042,165.277391 C217.151075,165.526302 266.701213,125.815365 271.022893,129.405433 C275.344574,132.995501 282.852171,141.95631 278.809619,149.605548 C274.767067,157.254786 219.364854,205.505297 195.504172,200.986599 C171.64349,196.4679 120.784335,164.061555 137.560926,116.921571 Z" id="Path" fill="url(#linearGradient-18)"></path>
                        <path d="M272.296703,133.679696 C272.296703,133.679696 282.416726,114.609295 283.248774,111.163309 C284.080822,107.717322 286.60599,112.896092 286.60599,112.896092 C286.60599,112.896092 295.313467,105.945381 296.764713,102.910563 C298.215959,99.8757457 310.82245,95.1766735 316.511335,95.930483 C322.20022,96.6842925 312.641345,100.218386 312.641345,100.218386 C312.641345,100.218386 308.132807,102.3036 305.772114,113.757588 C303.41142,125.211577 301.021701,135.0111 290.572729,139.817859 C280.123757,144.624619 279.456184,145.6917 279.456184,145.6917 C279.456184,145.6917 276.989066,135.608274 272.296703,133.679696 Z" id="Path" fill="#FFB9B9"></path>
                        <path d="M87.7249278,255.705345 C87.7249278,255.705345 75.2450796,283.97418 98.4510086,310.363541 C121.656938,336.752901 138.962069,357.350411 134.068961,398.190631 C129.175852,439.030851 140.909623,460.079051 140.909623,460.079051 L154.590947,460.079051 C154.590947,460.079051 175.820254,384.420601 172.15769,352.383227 C168.495126,320.345853 152.517432,255.801236 152.517432,255.801236 C152.517432,255.801236 121.249986,241.033934 87.7249278,255.705345 Z" id="Path" fill="#3F3D56"></path>
                        <path d="M139.983516,460.079051 L139.983516,477.332016 L176.417582,477.332016 C176.417582,477.332016 154.603973,473.296739 153.985812,468.705534 C153.36765,464.114328 153.208427,460.079051 153.208427,460.079051 L139.983516,460.079051 Z" id="Path" fill="url(#linearGradient-19)"></path>
                        <path d="M144.093259,474.51483 C142.368362,474.188774 140.22204,473.79026 139.134179,475.067314 C138.776212,475.544599 138.547645,476.094416 138.467741,476.670424 C138.128185,478.253047 138.003084,479.868573 138.09532,481.479753 C138.163924,482.684349 138.467741,484.042917 139.594805,484.640687 C140.302898,484.939142 141.085194,485.054939 141.858733,484.9758 L181.39417,484.305573 C182.903455,484.305573 184.647954,484.151602 185.500602,483.001348 C185.887253,482.434954 186.059602,481.766001 185.99063,481.099354 C185.769914,479.266498 184.69657,477.613292 183.050464,476.570795 C181.411527,475.537251 179.591052,474.774205 177.669959,474.315573 C172.769682,472.938891 164.929238,470.36667 160.087764,472.241493 C154.805265,474.261231 149.924589,475.646969 144.093259,474.51483 Z" id="Path" fill="#3F3D56"></path>
                        <path d="M20.1117265,417.905138 L3.83516484,425.766013 L23.6518786,458.162055 C23.6518786,458.162055 15.5135978,436.734676 19.3589355,433.886673 C23.2042732,431.038669 26.8461538,428.873801 26.8461538,428.873801 L20.1117265,417.905138 Z" id="Path" fill="url(#linearGradient-20)"></path>
                        <path d="M11.4736311,425.547768 C10.9368531,423.957816 10.2467098,421.995944 8.54052241,421.754197 C7.93239899,421.699976 7.31989521,421.792611 6.75765241,422.023838 C5.13861536,422.56517 3.59358512,423.295792 2.15669758,424.199563 C1.09272677,424.869017 0,425.817409 0,427.054039 C0.0737556024,427.786502 0.348473709,428.48642 0.795581773,429.080997 C7.45418585,439.792257 14.1127899,450.503517 20.771394,461.214778 C21.5382198,462.432812 22.5159227,463.799613 23.9824771,463.911189 C24.6910751,463.934809 25.3880971,463.732297 25.9666388,463.334715 C27.5583246,462.215425 28.5638828,460.475315 28.7176264,458.574154 C28.8609264,456.696854 28.6696152,454.80964 28.1520924,452.995373 C27.0306096,448.281303 25.5161287,440.480307 21.4423666,437.486361 C16.9564356,434.204177 13.2948424,430.912696 11.4736311,425.547768 Z" id="Path" fill="#3F3D56"></path>
                    </g>
                </g>
            </g>
        </g>
    </g>
</svg>